<svg width="35" height="25" viewBox="0 0 35 25" fill="none" xmlns="http://www.w3.org/2000/svg">
<path d="M34.2115 4.07465C33.8104 2.56415 32.6284 1.37454 31.1277 0.970823C28.4075 0.237228 17.5 0.237228 17.5 0.237228C17.5 0.237228 6.5925 0.237228 3.87227 0.970823C2.37155 1.3746 1.1896 2.56415 0.788439 4.07465C0.0595703 6.8125 0.0595703 12.5248 0.0595703 12.5248C0.0595703 12.5248 0.0595703 18.2371 0.788439 20.9749C1.1896 22.4854 2.37155 23.6255 3.87227 24.0292C6.5925 24.7628 17.5 24.7628 17.5 24.7628C17.5 24.7628 28.4075 24.7628 31.1277 24.0292C32.6284 23.6255 33.8104 22.4854 34.2115 20.9749C34.9404 18.2371 34.9404 12.5248 34.9404 12.5248C34.9404 12.5248 34.9404 6.8125 34.2115 4.07465ZM13.9326 17.7111V7.33846L23.0491 12.5249L13.9326 17.7111Z" fill="#4A4A4A"/>
</svg>
